<svg width="1657" height="1657" xmlns="http://www.w3.org/2000/svg" xmlns:xlink="http://www.w3.org/1999/xlink" xml:space="preserve" overflow="hidden"><g transform="translate(-1372 -365)"><path d="M1375.5 643.505C1375.5 491.624 1498.62 368.5 1650.51 368.5L2750.49 368.5C2902.38 368.5 3025.5 491.624 3025.5 643.505L3025.5 1743.49C3025.5 1895.38 2902.38 2018.5 2750.49 2018.5L1650.51 2018.5C1498.62 2018.5 1375.5 1895.38 1375.5 1743.49Z" stroke="#042433" stroke-width="6.875" stroke-miterlimit="8" fill-rule="evenodd"/><g><g><g><path d="M926.1 85.05 926.1 113.4 538.65 113.4 151.2 113.4 151.2 519.75 151.2 926.1 793.8 926.1 1436.4 926.1 1436.4 784.35 1436.4 642.6 1323 642.6 1209.6 642.6 1209.6 349.65 1209.6 56.7 1067.85 56.7 926.1 56.7 926.1 85.05M926.1 519.75 926.1 642.6 680.4 642.6 434.7 642.6 434.7 519.75 434.7 396.9 680.4 396.9 926.1 396.9 926.1 519.75" fill="#FFFFFF" fill-rule="evenodd" transform="matrix(1 0 0 1.00057 1444 708)"/></g></g></g></g></svg>