<svg width="1657" height="1657" xmlns="http://www.w3.org/2000/svg" xmlns:xlink="http://www.w3.org/1999/xlink" xml:space="preserve" overflow="hidden"><g transform="translate(-655 -410)"><path d="M658.5 688.505C658.5 536.624 781.624 413.5 933.505 413.5L2033.49 413.5C2185.38 413.5 2308.5 536.624 2308.5 688.505L2308.5 1788.49C2308.5 1940.38 2185.38 2063.5 2033.49 2063.5L933.505 2063.5C781.624 2063.5 658.5 1940.38 658.5 1788.49Z" stroke="#042433" stroke-width="6.875" stroke-miterlimit="8" fill-rule="evenodd"/><g><g><g><path d="M199.453 3.84984C188.376 9.60738 180.946 17.2851 175.934 28.1424 171.583 37.5743 171.414 59.5175 171.363 626.594L171.31 1215.25 176.814 1226.03C179.843 1231.96 186.553 1240.18 191.725 1244.29L201.132 1251.78 626.5 1251.78 1051.87 1251.78 1061.28 1244.29C1066.45 1240.18 1073.16 1231.96 1076.19 1226.03L1081.69 1215.25 1081.69 755.591C1081.69 303.301 1081.61 295.777 1076.88 286.843 1068.84 271.672 836.791 9.13437 827.134 4.28526 814.732-1.93902 211.391-2.36191 199.453 3.84984M788.529 181.3 789.243 311.208 797.237 318.347 805.228 325.486 917.763 325.486 1030.3 325.486 1030.3 764.772 1030.3 1204.06 626.5 1204.06 222.702 1204.06 222.702 627.725 222.702 51.3918 505.26 51.3918 787.818 51.3918 788.529 181.3" fill="#FFFFFF" fill-rule="evenodd" transform="matrix(1.13328 0 0 1 786 611)"/></g></g></g></g></svg>