<svg id="svg" version="1.1" xmlns="http://www.w3.org/2000/svg" xmlns:xlink="http://www.w3.org/1999/xlink" width="400" height="400" viewBox="0, 0, 400,400"><g id="svgg"><path id="path0" d="M63.672 1.229 C 60.136 3.067,57.764 5.518,56.164 8.984 C 54.775 11.995,54.721 19.000,54.705 200.030 L 54.688 387.950 56.445 391.391 C 57.412 393.283,59.554 395.906,61.205 397.220 L 64.208 399.609 200.000 399.609 L 335.792 399.609 338.795 397.220 C 340.446 395.906,342.588 393.283,343.555 391.391 L 345.313 387.950 345.313 241.210 C 345.313 96.824,345.288 94.422,343.777 91.570 C 341.211 86.727,267.132 2.916,264.049 1.368 C 260.090 -0.619,67.483 -0.754,63.672 1.229 M251.725 57.877 L 251.953 99.348 254.505 101.627 L 257.056 103.906 292.981 103.906 L 328.906 103.906 328.906 244.141 L 328.906 384.375 200.000 384.375 L 71.094 384.375 71.094 200.391 L 71.094 16.406 161.296 16.406 L 251.498 16.406 251.725 57.877 " stroke="none" fill="#000000" fill-rule="evenodd"></path></g></svg>