<svg width="1657" height="1657" xmlns="http://www.w3.org/2000/svg" xmlns:xlink="http://www.w3.org/1999/xlink" xml:space="preserve" overflow="hidden"><g transform="translate(-1372 -365)"><path d="M1375.5 643.505C1375.5 491.624 1498.62 368.5 1650.51 368.5L2750.49 368.5C2902.38 368.5 3025.5 491.624 3025.5 643.505L3025.5 1743.49C3025.5 1895.38 2902.38 2018.5 2750.49 2018.5L1650.51 2018.5C1498.62 2018.5 1375.5 1895.38 1375.5 1743.49Z" stroke="#042433" stroke-width="6.875" stroke-miterlimit="8" fill-rule="evenodd"/><g><g><g><path d="M38.6832 630.812 38.6832 1171.78 160.977 1171.78 283.271 1171.78 283.271 1103.14 283.271 1034.51 229.612 1034.51 175.953 1034.51 175.953 630.812 175.953 227.119 229.612 227.119 283.271 227.119 283.271 158.484 283.271 89.8486 160.977 89.8486 38.6832 89.8486 38.6832 630.812M1090.67 158.484 1090.67 227.119 1144.32 227.119 1197.98 227.119 1197.98 630.812 1197.98 1034.51 1144.32 1034.51 1090.67 1034.51 1090.67 1103.14 1090.67 1171.78 1212.96 1171.78 1335.25 1171.78 1335.25 630.812 1335.25 89.8486 1212.96 89.8486 1090.67 89.8486 1090.67 158.484M232.109 630.812 232.109 978.353 300.744 978.353 369.379 978.353 369.379 630.812 369.379 283.271 300.744 283.271 232.109 283.271 232.109 630.812M618.958 630.812 618.958 978.353 686.968 978.353 754.978 978.353 754.978 630.812 754.978 283.271 686.968 283.271 618.958 283.271 618.958 630.812M1004.87 630.499 1005.18 977.728 1073.5 978.05 1141.83 978.373 1141.83 630.822 1141.83 283.271 1073.19 283.271 1004.55 283.271 1004.87 630.499M425.532 630.177 425.532 934.675 494.171 934.675 562.809 934.675 562.493 630.499 562.177 326.327 493.855 326.004 425.532 325.681 425.532 630.177M812.381 630.19 812.381 934.675 880.391 934.675 948.404 934.675 948.404 630.19 948.404 325.702 880.391 325.702 812.381 325.702 812.381 630.19" fill="#FFFFFF" fill-rule="evenodd" transform="matrix(1 0 0 1.00015 1513.53 569)"/></g></g></g></g></svg>