<svg id="svg" xmlns="http://www.w3.org/2000/svg" xmlns:xlink="http://www.w3.org/1999/xlink" width="400" height="363.28125" viewBox="0, 0, 400,363.28125" version="1.1"><g id="svgg"><path id="path0" d="M11.262 183.651 L 11.262 341.144 46.866 341.144 L 82.470 341.144 82.470 321.163 L 82.470 301.181 66.848 301.181 L 51.226 301.181 51.226 183.651 L 51.226 66.122 66.848 66.122 L 82.470 66.122 82.470 46.140 L 82.470 26.158 46.866 26.158 L 11.262 26.158 11.262 183.651 M317.530 46.140 L 317.530 66.122 333.152 66.122 L 348.774 66.122 348.774 183.651 L 348.774 301.181 333.152 301.181 L 317.530 301.181 317.530 321.163 L 317.530 341.144 353.134 341.144 L 388.738 341.144 388.738 183.651 L 388.738 26.158 353.134 26.158 L 317.530 26.158 317.530 46.140 M67.575 183.651 L 67.575 284.832 87.557 284.832 L 107.539 284.832 107.539 183.651 L 107.539 82.470 87.557 82.470 L 67.575 82.470 67.575 183.651 M180.200 183.651 L 180.200 284.832 200.000 284.832 L 219.800 284.832 219.800 183.651 L 219.800 82.470 200.000 82.470 L 180.200 82.470 180.200 183.651 M292.552 183.560 L 292.643 284.650 312.534 284.744 L 332.425 284.838 332.425 183.654 L 332.425 82.470 312.443 82.470 L 292.460 82.470 292.552 183.560 M123.887 183.466 L 123.887 272.116 143.870 272.116 L 163.853 272.116 163.761 183.560 L 163.669 95.005 143.778 94.911 L 123.887 94.817 123.887 183.466 M236.512 183.470 L 236.512 272.116 256.312 272.116 L 276.113 272.116 276.113 183.470 L 276.113 94.823 256.312 94.823 L 236.512 94.823 236.512 183.470 " stroke="none" fill="#24cccc" fill-rule="evenodd"></path><path id="path1" d="" stroke="none" fill="#28cccc" fill-rule="evenodd"></path></g></svg>